<?xml version="1.0" encoding="UTF-8"?><svg id="Capa_1" xmlns="http://www.w3.org/2000/svg" viewBox="0 0 1080 1080"><defs><style>.cls-1{fill:#d35b7a;}.cls-2{fill:#ab4459;}.cls-3{fill:#431752;}.cls-4{fill:#502168;}.cls-5{fill:#fc7a99;}.cls-6{fill:#f29f58;}.cls-7{fill:#5d2275;}.cls-8{fill:#2a0f35;}.cls-9{fill:#7b2f9b;}.cls-10{fill:#fcb17a;}.cls-11{fill:#f9d8a2;}</style></defs><path d="M619.9,493.78c0,4.38-1.12,8.2-3.34,11.47-2.23,3.27-5.24,5.81-9.02,7.65-3.78,1.83-7.94,2.75-12.48,2.75h-40.26v-84.81h42.17c3.98,0,7.42,1.06,10.33,3.17,2.91,2.11,5.14,4.82,6.69,8.12,1.55,3.31,2.33,6.75,2.33,10.33,0,4.14-1.06,8.02-3.17,11.65-2.11,3.62-5.12,6.31-9.02,8.06,4.86,1.43,8.7,4.08,11.53,7.94,2.83,3.86,4.24,8.42,4.24,13.68ZM565.55,440.14v28.31h27c2.55,0,4.8-.64,6.75-1.91,1.95-1.27,3.5-2.99,4.66-5.14,1.15-2.15,1.73-4.5,1.73-7.05,0-2.71-.54-5.12-1.61-7.23-1.08-2.11-2.55-3.8-4.42-5.08-1.87-1.27-4-1.91-6.39-1.91h-27.71ZM609.03,491.87c0-2.63-.58-5.06-1.73-7.29-1.16-2.23-2.71-4.02-4.66-5.38-1.95-1.35-4.2-2.03-6.75-2.03h-30.34v29.15h29.51c2.63,0,5-.68,7.11-2.03,2.11-1.35,3.78-3.12,5.02-5.32,1.23-2.19,1.85-4.56,1.85-7.11Z"/><path d="M633.52,428.43h10.51v71.4c0,3.44.48,5.56,1.43,6.36.96.8,2.11,1.2,3.46,1.2,1.67,0,3.26-.18,4.78-.54,1.51-.36,2.79-.74,3.82-1.13l1.67,8.6c-1.75.72-3.82,1.31-6.21,1.79-2.39.48-4.5.72-6.33.72-4.06,0-7.27-1.16-9.62-3.48-2.35-2.32-3.52-5.56-3.52-9.72v-75.2Z"/><path d="M694.68,516.83c-4.7,0-8.96-.85-12.78-2.55-3.82-1.7-7.13-4.03-9.92-7-2.79-2.96-4.94-6.38-6.45-10.26-1.51-3.87-2.27-7.94-2.27-12.21s.76-8.46,2.27-12.33c1.51-3.87,3.66-7.29,6.45-10.26,2.79-2.96,6.11-5.29,9.97-7,3.86-1.7,8.1-2.55,12.72-2.55s8.96.85,12.78,2.55c3.82,1.7,7.15,4.03,9.97,7,2.83,2.96,5,6.38,6.51,10.26,1.51,3.88,2.27,7.98,2.27,12.33s-.76,8.34-2.27,12.21c-1.51,3.88-3.66,7.29-6.45,10.26-2.79,2.96-6.11,5.3-9.97,7-3.86,1.7-8.14,2.55-12.84,2.55ZM674.02,484.93c0,4.26.94,8.12,2.81,11.59,1.87,3.47,4.36,6.21,7.47,8.22,3.11,2.01,6.57,3.01,10.39,3.01s7.31-1.03,10.45-3.07c3.15-2.05,5.65-4.83,7.53-8.33,1.87-3.51,2.81-7.39,2.81-11.65s-.94-8.12-2.81-11.58c-1.87-3.47-4.38-6.23-7.53-8.28-3.15-2.05-6.63-3.07-10.45-3.07s-7.29,1.05-10.39,3.13c-3.11,2.09-5.6,4.87-7.47,8.33-1.87,3.47-2.81,7.37-2.81,11.71Z"/><path d="M766.59,516.83c-4.7,0-8.98-.85-12.84-2.55-3.86-1.7-7.21-4.05-10.03-7.05-2.83-3-5.02-6.44-6.57-10.31-1.55-3.87-2.33-7.98-2.33-12.33,0-5.85,1.31-11.18,3.94-16.01,2.63-4.82,6.33-8.68,11.11-11.56s10.31-4.33,16.6-4.33,11.49,1.37,16.07,4.12c4.58,2.75,7.98,6.43,10.21,11.05l-10.27,3.22c-1.59-2.95-3.82-5.24-6.69-6.87-2.87-1.63-6.05-2.45-9.56-2.45-3.82,0-7.31.99-10.45,2.96-3.15,1.97-5.64,4.67-7.47,8.1-1.83,3.43-2.75,7.35-2.75,11.76s.94,8.26,2.81,11.76c1.87,3.51,4.38,6.28,7.53,8.33,3.15,2.05,6.63,3.07,10.45,3.07,2.47,0,4.84-.44,7.11-1.31,2.27-.88,4.26-2.05,5.97-3.52,1.71-1.47,2.89-3.09,3.52-4.84l10.27,3.11c-1.27,3.03-3.21,5.71-5.79,8.06-2.59,2.35-5.66,4.2-9.2,5.55-3.54,1.35-7.43,2.03-11.65,2.03Z"/><path d="M849.14,515.64l-21.62-30.23-11.83,11.07v19.16h-10.51v-87.2h10.51v57.1l32.25-31.89h11.35l-24.85,25.7,26.04,36.29h-11.35Z"/><path d="M604.61,554.89c-.96-1.11-2.23-2.19-3.82-3.23-1.59-1.03-3.39-1.97-5.38-2.81-1.99-.84-4.16-1.51-6.51-2.03-2.35-.52-4.8-.78-7.35-.78-6.53,0-11.35,1.23-14.45,3.69-3.11,2.46-4.66,5.84-4.66,10.12,0,3.02.8,5.4,2.39,7.15,1.59,1.75,4.04,3.18,7.35,4.29,3.3,1.11,7.51,2.26,12.6,3.45,5.89,1.27,10.99,2.82,15.29,4.65s7.6,4.27,9.92,7.32c2.31,3.06,3.46,7.12,3.46,12.21,0,4.05-.78,7.56-2.33,10.54-1.55,2.98-3.72,5.44-6.51,7.38-2.79,1.95-6.05,3.38-9.8,4.29-3.74.91-7.81,1.37-12.18,1.37s-8.5-.46-12.6-1.37c-4.1-.92-7.98-2.25-11.65-4-3.66-1.75-7.09-3.94-10.27-6.57l5.14-9.08c1.27,1.35,2.93,2.69,4.96,4,2.03,1.31,4.34,2.53,6.93,3.64,2.59,1.12,5.39,2.01,8.42,2.69,3.03.68,6.13,1.01,9.32,1.01,6.05,0,10.75-1.09,14.1-3.27,3.34-2.18,5.02-5.37,5.02-9.57,0-3.18-.94-5.72-2.81-7.62-1.87-1.91-4.64-3.49-8.3-4.77-3.66-1.27-8.12-2.54-13.38-3.81-5.73-1.43-10.55-3-14.45-4.71-3.9-1.71-6.83-3.95-8.78-6.73-1.95-2.78-2.93-6.39-2.93-10.84,0-5.4,1.31-9.96,3.94-13.7,2.63-3.73,6.25-6.55,10.87-8.46,4.62-1.91,9.83-2.86,15.65-2.86,3.82,0,7.39.4,10.69,1.19,3.3.8,6.39,1.91,9.26,3.34,2.87,1.43,5.5,3.15,7.88,5.14l-5.02,8.72Z"/><path d="M625.88,547.84v-13.14h10.51v13.14h-10.51ZM625.88,621.91v-62.36h10.51v62.36h-10.51Z"/><path d="M678.2,623.1c-4.22,0-8.1-.86-11.65-2.57-3.54-1.71-6.59-4.06-9.14-7.05-2.55-2.99-4.52-6.39-5.91-10.21-1.39-3.82-2.09-7.8-2.09-11.95,0-4.38.7-8.52,2.09-12.42,1.39-3.9,3.38-7.35,5.97-10.33,2.59-2.99,5.63-5.33,9.14-7.05,3.5-1.71,7.41-2.57,11.71-2.57,5.18,0,9.69,1.25,13.56,3.76,3.86,2.51,7.11,5.71,9.74,9.62v-12.42h9.32v61.39c0,5.87-1.41,10.83-4.24,14.87-2.83,4.04-6.65,7.12-11.47,9.22-4.82,2.1-10.17,3.15-16.07,3.15-7.01,0-12.74-1.24-17.2-3.7-4.46-2.47-8.16-5.81-11.11-10.03l6.09-5.38c2.47,3.66,5.67,6.41,9.62,8.24,3.94,1.83,8.14,2.75,12.6,2.75,3.82,0,7.35-.68,10.57-2.03,3.23-1.36,5.81-3.43,7.76-6.22,1.95-2.79,2.93-6.29,2.93-10.5v-10.99c-2.31,3.82-5.48,6.85-9.5,9.08-4.02,2.23-8.26,3.34-12.72,3.34ZM681.42,614.5c2.23,0,4.38-.4,6.45-1.19,2.07-.79,3.98-1.85,5.73-3.17,1.75-1.31,3.23-2.81,4.42-4.48,1.19-1.67,1.99-3.38,2.39-5.14v-17.92c-1.12-2.87-2.71-5.39-4.78-7.59-2.07-2.19-4.42-3.9-7.05-5.14-2.63-1.23-5.34-1.85-8.12-1.85-3.19,0-6.03.68-8.54,2.03-2.51,1.35-4.64,3.17-6.39,5.43-1.75,2.27-3.11,4.8-4.06,7.59-.96,2.79-1.43,5.61-1.43,8.48,0,3.11.56,6.03,1.67,8.78,1.11,2.75,2.63,5.2,4.54,7.35,1.91,2.15,4.18,3.82,6.81,5.02,2.63,1.19,5.41,1.79,8.36,1.79Z"/><path d="M782,621.91h-10.51v-34.57c0-6.31-1.13-11.05-3.4-14.21-2.27-3.16-5.52-4.74-9.74-4.74-2.71,0-5.44.71-8.18,2.13-2.75,1.42-5.16,3.32-7.23,5.72-2.07,2.4-3.58,5.17-4.54,8.32v37.34h-10.51v-87.2h10.51v38.6c2.47-4.43,5.83-7.92,10.09-10.49,4.26-2.57,8.86-3.85,13.8-3.85,3.74,0,6.87.65,9.38,1.96,2.51,1.3,4.52,3.14,6.03,5.51,1.51,2.37,2.61,5.12,3.29,8.24.68,3.12,1.02,6.54,1.02,10.25v36.99Z"/><path d="M830.03,619.16c-.88.4-2.07.92-3.58,1.55-1.51.64-3.27,1.19-5.26,1.67-1.99.48-4.1.72-6.33.72-2.55,0-4.9-.46-7.05-1.37-2.15-.92-3.86-2.35-5.14-4.3-1.27-1.95-1.91-4.4-1.91-7.35v-41.93h-8.48v-8.24h8.48v-20.79h10.51v20.79h13.98v8.24h-13.98v38.7c.16,2.23.91,3.88,2.27,4.96,1.35,1.08,2.95,1.61,4.78,1.61,2.07,0,3.98-.36,5.73-1.08,1.75-.72,2.91-1.23,3.46-1.55l2.51,8.36Z"/><path d="M523.27,728.18v-13.38h8.84v13.38h-8.84Z"/><path d="M549.9,728.18v-84.81h10.75v75.26h47.3v9.56h-58.06Z"/><path d="M617.99,654.11v-13.14h10.51v13.14h-10.51ZM617.99,728.18v-62.36h10.51v62.36h-10.51Z"/><path d="M663.39,728.18l-24.49-62h10.99l19.59,52.02,19.59-52.02h10.27l-24.49,62h-11.47Z"/><path d="M735.3,729.37c-4.7,0-8.98-.85-12.84-2.55-3.86-1.7-7.21-4.03-10.03-7-2.83-2.96-5.02-6.38-6.57-10.26-1.55-3.87-2.33-7.98-2.33-12.33,0-5.85,1.35-11.18,4.06-16.01,2.71-4.82,6.47-8.69,11.29-11.62,4.82-2.92,10.33-4.39,16.54-4.39s11.77,1.48,16.43,4.45c4.66,2.97,8.28,6.84,10.87,11.63,2.59,4.79,3.88,9.95,3.88,15.49,0,.79-.02,1.56-.06,2.31-.04.75-.1,1.33-.18,1.72h-51.72c.32,4.02,1.45,7.58,3.4,10.69,1.95,3.11,4.48,5.55,7.59,7.32s6.45,2.66,10.03,2.66c3.82,0,7.42-.96,10.81-2.87,3.38-1.91,5.71-4.42,6.99-7.53l9.08,2.51c-1.36,3.03-3.37,5.73-6.03,8.12-2.67,2.39-5.81,4.26-9.44,5.61-3.62,1.35-7.55,2.03-11.77,2.03ZM714.27,693.53h42.53c-.32-4.01-1.47-7.56-3.46-10.63-1.99-3.07-4.54-5.47-7.65-7.2-3.11-1.73-6.53-2.6-10.27-2.6s-7.05.87-10.15,2.6c-3.11,1.73-5.64,4.13-7.59,7.2-1.95,3.07-3.09,6.61-3.4,10.63Z"/><polygon class="cls-8" points="272.23 715.35 272.23 616.97 361.99 669.61 361.99 768 272.23 715.35"/><polygon class="cls-4" points="361.99 767.14 361.99 668.75 446.57 619.56 446.57 717.94 361.99 767.14"/><polygon class="cls-3" points="229.52 637.47 229.52 537.19 358.28 612.71 358.28 712.99 229.52 637.47"/><polygon class="cls-9" points="358.28 712.99 358.28 611.47 479.6 540.9 479.6 642.42 358.28 712.99"/><polygon class="cls-7" points="358.28 612.71 229.52 537.19 350.85 466.62 479.6 542.14 358.28 612.71"/><polygon class="cls-2" points="229.93 538.43 229.93 439.39 358.68 514.9 358.68 613.95 229.93 538.43"/><polygon class="cls-5" points="358.68 612.71 358.68 514.9 480.01 444.34 480.01 542.14 358.68 612.71"/><polygon class="cls-1" points="358.68 514.9 229.93 439.39 351.26 368.82 480.01 444.34 358.68 514.9"/><polygon class="cls-6" points="267.51 441.58 267.51 369.19 357.26 421.83 357.26 494.22 267.51 441.58"/><polygon class="cls-11" points="357.26 493.36 357.26 423.45 441.84 374.25 441.84 444.17 357.26 493.36"/><polygon class="cls-10" points="357.26 423.07 267.51 370.43 352.09 321.23 441.84 373.88 357.26 423.07"/></svg>