<?xml version="1.0" encoding="UTF-8"?><svg id="Capa_1" xmlns="http://www.w3.org/2000/svg" viewBox="0 0 1080 1080"><defs><style>.cls-1{fill:#d35b7a;}.cls-2{fill:#ab4459;}.cls-3{fill:#431752;}.cls-4{fill:#502168;}.cls-5{fill:#fc7a99;}.cls-6{fill:#f29f58;}.cls-7{fill:#5d2275;}.cls-8{fill:#2a0f35;}.cls-9{fill:#7b2f9b;}.cls-10{fill:#fcb17a;}.cls-11{fill:#f9d8a2;}</style></defs><polygon class="cls-8" points="436.66 753.78 436.66 630.59 549.04 696.51 549.04 819.69 436.66 753.78"/><polygon class="cls-4" points="549.04 818.61 549.04 695.42 654.94 633.83 654.94 757.02 549.04 818.61"/><polygon class="cls-3" points="383.19 656.26 383.19 530.7 544.39 625.25 544.39 750.81 383.19 656.26"/><polygon class="cls-9" points="544.39 750.81 544.39 623.7 696.3 535.35 696.3 662.46 544.39 750.81"/><polygon class="cls-7" points="544.39 625.25 383.19 530.7 535.09 442.35 696.3 536.9 544.39 625.25"/><polygon class="cls-2" points="383.7 532.25 383.7 408.24 544.91 502.8 544.91 626.8 383.7 532.25"/><polygon class="cls-5" points="544.91 625.25 544.91 502.8 696.81 414.44 696.81 536.9 544.91 625.25"/><polygon class="cls-1" points="544.91 502.8 383.7 408.24 535.61 319.89 696.81 414.44 544.91 502.8"/><polygon class="cls-6" points="430.75 410.99 430.75 320.35 543.13 386.27 543.13 476.9 430.75 410.99"/><polygon class="cls-11" points="543.13 475.82 543.13 388.29 649.02 326.69 649.02 414.23 543.13 475.82"/><polygon class="cls-10" points="543.13 387.82 430.75 321.9 536.64 260.31 649.02 326.22 543.13 387.82"/></svg>